# xmcd
#
# Track frame offsets: 
#        150
#        21358
#        36886
#        59554
#        77263
#        103276
#        123664
#        151448
#        177806
#        196735
#        221213
#        234181
#        256554
#        281580
#        305227
#        319676
#        344431
#
# Disc length: 4800 seconds
#
# Revision: 0
# Processed by: cddbd v1.5.2PL0 Copyright (c) Steve Scherf et al.
# Submitted via: ExactAudioCopy v1.3
#
DISCID=f112be11
DTITLE=Various Artist - Akella Presents - vol. 123 - Electric Blues  
DTITLE=CD2
DYEAR=2018
DGENRE=Blues
TTITLE0=Rockocola - Dear Girl
TTITLE1=Oscar Benton - I Am Back
TTITLE2=Randy Volin and The Hard Ones - I Want Your Lovin'
TTITLE3=Mike Goudreau - Won't You Pardon Me
TTITLE4=Scott Ramminger - Magic In the Music
TTITLE5=Dr. Wu' And Friends - Mistletoe Heights
TTITLE6=Mark Selby - Trouble Wants
TTITLE7=Coyote Kings - Afternoon Sun
TTITLE8=Kai Strauss - Ain't Gonna Ramble No More
TTITLE9=Austin Young - Disappearing Railroad Blues
TTITLE10=Mike Eldred Trio - I Ain't Comin' Back
TTITLE11=King Cleveland Blues Band - Blues Elixer
TTITLE12=The Dogtown Blues Band - Drunkard Blues
TTITLE13=Les Wilson - As the Years Go Passing By
TTITLE14=Me And That Man - Get Outta This Place
TTITLE15=Johnny V - Suicide Bomber Blues
TTITLE16=Per Frost - Walking After Midnight
EXTD=
EXTT0=
EXTT1=
EXTT2=
EXTT3=
EXTT4=
EXTT5=
EXTT6=
EXTT7=
EXTT8=
EXTT9=
EXTT10=
EXTT11=
EXTT12=
EXTT13=
EXTT14=
EXTT15=
EXTT16=
PLAYORDER=
